<svg width="30" height="28" fill="none" xmlns="http://www.w3.org/2000/svg"><path d="M28.82 19.85H8.9l1-2.11 16.62-.03c.56 0 1.04-.42 1.14-1l2.3-13.36c.06-.35-.03-.72-.25-.99a1.18 1.18 0 0 0-.89-.43L7.68 1.85 7.5.97A1.2 1.2 0 0 0 6.35 0H1.18C.87 0 .57.13.35.36a1.25 1.25 0 0 0 0 1.73c.22.23.52.36.83.36h4.21l.79 3.9 1.94 9.76-2.5 4.24a1.24 1.24 0 0 0-.1 1.27c.2.42.6.68 1.05.68h2.1A3.64 3.64 0 0 0 8 24.44 3.5 3.5 0 0 0 11.42 28a3.5 3.5 0 0 0 3.43-3.56c0-.78-.25-1.53-.7-2.14h5.4a3.65 3.65 0 0 0-.7 2.14A3.5 3.5 0 0 0 22.3 28a3.5 3.5 0 0 0 3.43-3.56c0-.78-.25-1.53-.69-2.14h3.79A1.2 1.2 0 0 0 30 21.07c0-.32-.13-.63-.35-.86a1.16 1.16 0 0 0-.83-.36ZM8.18 4.27l19.25.07-1.88 10.96-15.13.02L8.18 4.27Zm3.24 21.27c-.59 0-1.06-.5-1.06-1.1 0-.6.47-1.1 1.06-1.1.58 0 1.05.5 1.05 1.1 0 .29-.1.57-.3.77-.2.21-.47.33-.75.33Zm10.87 0c-.58 0-1.06-.5-1.06-1.1 0-.6.48-1.1 1.06-1.1.58 0 1.06.5 1.06 1.1 0 .29-.12.57-.31.77-.2.21-.47.33-.75.33Z" fill="currentColor"/></svg>