<svg width="161" height="112" fill="none" xmlns="http://www.w3.org/2000/svg"><path fill-rule="evenodd" clip-rule="evenodd" d="M25.58 100.36c20.26 0 24.07-18.09 24.07-32.57h30.1c47.17 0 47.19-67.79 1.5-67.79a30.16 30.16 0 0 0-22.57 10.32C33.2 10.32 30.1 23.84 30.1 50.1v24.07c0 6.18-2.44 10.18-9.03 10.18-5.62 0-8.28-5.05-10.53-12.15-1.17.64-9.39 5.16-10.53 5.9 2.49 7.09 5.15 22.25 25.58 22.25ZM54.22 39.8c7.72 0 8.37 11.79-.55 11.79-7.52 0-7.32-11.79.55-11.79Zm27.03 35.33c-6.52 0-25.58-1.43-25.58-1.43v36.34l18.06.26L78.24 84l57.18-1.09 1.5 28.83L158 112S161 55.54 161 44.21c0-21-9.25-32.9-30.1-33.9-5.22-.24-12.05-1.23-16.55-1.47 19.62 24.24 4.01 66.28-33.1 66.28Zm36.12 14.74 1.5 21.35 12.04.27-1.5-21.62h-12.04Zm-37.62 20.7 12.03.26 3.01-20.96H84.26l-4.51 20.7Z" fill="currentColor"/></svg>