<svg width="30" height="30" fill="none" xmlns="http://www.w3.org/2000/svg"><g clip-path="url(#a)" fill="currentColor"><path d="M12.13 15a2.87 2.87 0 1 0 5.74 0 2.87 2.87 0 0 0-5.74 0Z"/><path d="M8.29 9.92c.13-.37.35-.71.64-.99.28-.29.62-.5.99-.64.3-.12.76-.26 1.6-.3.9-.04 1.18-.05 3.48-.05s2.57 0 3.48.05c.84.04 1.3.18 1.6.3.37.13.71.35.99.64.29.28.5.62.64.99.12.3.26.76.3 1.6.04.9.05 1.18.05 3.48s0 2.57-.05 3.48c-.04.84-.18 1.3-.3 1.6-.13.37-.35.71-.64.99-.28.29-.62.5-.99.64-.3.12-.76.26-1.6.3-.9.04-1.18.05-3.48.05s-2.57 0-3.48-.05a4.76 4.76 0 0 1-1.6-.3 2.85 2.85 0 0 1-1.63-1.63c-.12-.3-.26-.76-.3-1.6-.04-.9-.05-1.18-.05-3.48s0-2.57.05-3.48c.04-.84.18-1.3.3-1.6Zm6.71 9.5a4.42 4.42 0 1 0 0-8.84 4.42 4.42 0 0 0 0 8.84Zm-4.6-7.98a1.03 1.03 0 1 0 0-2.07 1.03 1.03 0 0 0 0 2.07Z"/><path d="M15 0a15 15 0 1 1 0 30 15 15 0 0 1 0-30ZM6.44 18.55c.04.92.19 1.54.4 2.1a4.4 4.4 0 0 0 2.52 2.51c.55.21 1.17.36 2.09.4.92.04 1.21.05 3.55.05s2.63 0 3.55-.05a6.32 6.32 0 0 0 2.1-.4c.57-.22 1.09-.55 1.52-1 .44-.42.77-.94 1-1.52.2-.55.35-1.17.4-2.09.03-.92.04-1.21.04-3.55s0-2.63-.05-3.55a6.32 6.32 0 0 0-.4-2.1 4.22 4.22 0 0 0-1-1.52 4.22 4.22 0 0 0-1.52-1 6.32 6.32 0 0 0-2.09-.4c-.92-.03-1.21-.04-3.55-.04s-2.63 0-3.55.05c-.92.04-1.54.19-2.1.4-.57.22-1.09.55-1.52 1-.44.42-.77.94-1 1.52a6.32 6.32 0 0 0-.4 2.09c-.03.92-.04 1.21-.04 3.55s0 2.63.05 3.55Z"/></g><defs><clipPath id="a"><path fill="#fff" transform="matrix(-1 0 0 1 30 0)" d="M0 0h30v30H0z"/></clipPath></defs></svg>