<svg width="26" height="28" fill="none" xmlns="http://www.w3.org/2000/svg"><path d="M24.98 22.85a13.17 13.17 0 0 0-6.92-7.04c-.01 0-.03 0-.04-.02a8.75 8.75 0 0 0 3.55-7.07A8.65 8.65 0 0 0 13 0a8.65 8.65 0 0 0-8.57 8.72c0 2.91 1.4 5.5 3.55 7.08a12.86 12.86 0 0 0-4.17 2.85A13.23 13.23 0 0 0 0 27.82a.28.28 0 0 0 .16.16l.1.02h2.08c.15 0 .27-.12.28-.27a10.58 10.58 0 0 1 3.03-7.2 10.22 10.22 0 0 1 14.68 0 10.58 10.58 0 0 1 3.03 7.2c0 .15.13.27.28.27h2.07a.27.27 0 0 0 .2-.08.28.28 0 0 0 .08-.2 13.3 13.3 0 0 0-1.02-4.87ZM13 14.77A5.86 5.86 0 0 1 8.8 13a6.06 6.06 0 0 1-1.75-4.28c0-1.61.62-3.13 1.75-4.27a5.86 5.86 0 0 1 8.4 0 6.06 6.06 0 0 1 1.75 4.27c0 1.62-.62 3.14-1.75 4.28a5.86 5.86 0 0 1-4.2 1.77Z" fill="currentColor"/></svg>