<svg width="30" height="30" fill="none" xmlns="http://www.w3.org/2000/svg"><path d="M15 0a15 15 0 1 0 0 30 15 15 0 0 0 0-30Zm7.6 16.62c.7.69 1.45 1.33 2.08 2.08.27.33.54.68.73 1.07.29.55.03 1.16-.46 1.19h-3.08c-.79.06-1.42-.26-1.95-.8-.43-.43-.82-.9-1.23-1.34a2.87 2.87 0 0 0-.56-.5c-.41-.27-.78-.18-1.02.26s-.3.93-.32 1.43c-.04.72-.25.91-.98.95a7.87 7.87 0 0 1-4.4-.95 9.7 9.7 0 0 1-2.96-2.77 37.33 37.33 0 0 1-3.9-6.94c-.24-.55-.06-.84.54-.85 1-.02 2.01-.02 3.01 0 .41 0 .68.24.84.62.54 1.33 1.2 2.6 2.04 3.78.22.31.45.63.77.85.35.24.63.16.8-.24.1-.25.15-.52.17-.79.08-.93.09-1.85-.05-2.78-.08-.58-.4-.95-.98-1.06-.3-.05-.26-.16-.11-.33.25-.29.48-.47.94-.47H16c.55.1.67.35.75.9v3.86c0 .22.1.85.49.99.3.1.51-.15.7-.34a12 12 0 0 0 1.95-3c.23-.48.44-.97.63-1.47.15-.36.38-.54.79-.54h3.34c.1 0 .2 0 .3.03.56.1.72.33.54.88-.27.87-.8 1.59-1.33 2.3-.56.78-1.15 1.53-1.7 2.3-.51.71-.47 1.07.16 1.68Z" fill="currentColor"/></svg>